<svg xmlns="http://www.w3.org/2000/svg" width="160" height="33.6"><linearGradient id="A" gradientUnits="userSpaceOnUse" x1="37.329" y1="7.574" x2="32.283" y2="12.619"><stop offset="0" stop-color="#fc5b3f"/><stop offset=".284" stop-color="#f8573d"/><stop offset=".579" stop-color="#eb4b38"/><stop offset=".877" stop-color="#d73730"/><stop offset="1" stop-color="#cc2c2c"/></linearGradient><path d="M31.2 5.6l-1 1.1 2.5 6.4 3.9 3.5 2.8-3.4L37.7 8l-4.4-4.5c-.8.7-1.5 1.3-2.1 2.1z" fill="url(#A)"/><path d="M39.5 13.1c1.1-1.2 2.5-1.9 4-1.9 2.2 0 5.7 1.5 5.7 5.6s-3.5 5.6-5.7 5.6c-1.5 0-2.9-.6-4-1.9l-2.8-4-6.5-9.9L28.9 18l1.3 8.9 1 1.1c2.4 2.7 5.5 4.5 8.9 5.2 3.2.7 6.5.4 9.6-.8s5.7-3.2 7.6-5.8c2-2.8 3.1-6.2 3.1-9.8s-1.1-7-3.1-9.8c-1.9-2.6-4.5-4.6-7.6-5.8S43.3-.3 40.1.4c-2.5.5-4.8 1.6-6.8 3.2l6.2 9.5z" fill="#fc5b3f"/><linearGradient id="B" gradientUnits="userSpaceOnUse" x1="22.463" y1="25.299" x2="28.415" y2="21.863"><stop offset="0" stop-color="#fc5b3f"/><stop offset=".284" stop-color="#f8573d"/><stop offset=".579" stop-color="#eb4b38"/><stop offset=".877" stop-color="#d73730"/><stop offset="1" stop-color="#cc2c2c"/></linearGradient><path d="M29.2 28.1l1-1.1-2.5-6.4-3.9-3.5-2.8 3.4 1.7 5.1 4.4 4.5c.7-.6 1.5-1.3 2.1-2z" fill="url(#B)"/><path d="M20.9 20.5c-1.1 1.2-2.5 1.9-4 1.9-2.2 0-5.7-1.5-5.7-5.6s3.5-5.6 5.7-5.6c1.5 0 2.9.6 4 1.9l2.8 4 6.5 9.9V6.6l-1-1.1C26.8 2.8 23.7 1 20.3.3c-3.2-.7-6.5-.4-9.6.8S5 4.3 3.1 7C1.1 9.8 0 13.2 0 16.8s1.1 7 3.1 9.8c1.9 2.6 4.5 4.6 7.6 5.8s6.4 1.5 9.6.8c2.5-.5 4.8-1.6 6.8-3.2l-6.2-9.5z" fill="#fc5b3f"/><path d="M70.3 26.2V6.1h4.2v16.6h8.6v3.5H70.3zM90.2 6.1v20.1H86V6.1h4.2zm21.9 10c0 2.2-.4 4.1-1.2 5.6s-1.9 2.7-3.4 3.5c-1.4.8-3 1.2-4.8 1.2s-3.4-.4-4.8-1.2-2.5-2-3.4-3.5-1.2-3.4-1.2-5.6.4-4.1 1.2-5.6c.9-1.5 2-2.7 3.4-3.5s3-1.2 4.8-1.2 3.4.4 4.8 1.2 2.5 2 3.4 3.5c.8 1.6 1.2 3.4 1.2 5.6zm-4.3 0c0-1.4-.2-2.6-.6-3.6s-1-1.7-1.8-2.2-1.7-.8-2.7-.8-1.9.2-2.7.8c-.8.5-1.4 1.2-1.8 2.2s-.6 2.2-.6 3.6.2 2.6.6 3.6 1 1.7 1.8 2.2 1.7.8 2.7.8 1.9-.2 2.7-.8c.8-.5 1.4-1.2 1.8-2.2s.6-2.2.6-3.6zm-6.6 3.1h3.6l1.8 2.3 1.8 2.1 3.4 4.2h-4l-2.3-2.8-1.2-1.7-3.1-4.1zm26.4-13.1h4.2v13c0 1.5-.3 2.7-1 3.8s-1.7 1.9-2.9 2.6c-1.2.6-2.7.9-4.4.9s-3.1-.3-4.4-.9c-1.2-.6-2.2-1.5-2.9-2.6s-1-2.4-1-3.8v-13h4.2v12.7c0 .8.2 1.4.5 2a3.16 3.16 0 001.4 1.4c.6.3 1.3.5 2.2.5.8 0 1.5-.2 2.2-.5a3.16 3.16 0 001.4-1.4c.3-.6.5-1.3.5-2V6.1zm12 0v20.1h-4.2V6.1h4.2zm10.6 20.1h-7.1V6.1h7.2c2 0 3.7.4 5.2 1.2a7.97 7.97 0 013.4 3.4c.8 1.5 1.2 3.3 1.2 5.4s-.4 3.9-1.2 5.4-1.9 2.6-3.4 3.5c-1.5.8-3.3 1.2-5.3 1.2zm-2.9-3.7h2.7c1.3 0 2.3-.2 3.2-.7.9-.4 1.5-1.1 1.9-2.1.4-.9.6-2.2.6-3.7s-.2-2.7-.6-3.6-1.1-1.6-1.9-2.1c-.9-.4-1.9-.7-3.2-.7h-2.7v12.9z" fill="#fff"/></svg>